<svg width="478" height="198" viewBox="0 0 478 198" fill="none" xmlns="http://www.w3.org/2000/svg"><path d="M4.06546 195.955C2.87293 195.955 1.89722 195.574 1.13833 194.812C0.379443 194.049 0 193.069 0 191.871V84.0604C0 82.8625 0.379443 81.8824 1.13833 81.1201C1.89722 80.3578 2.87293 79.9767 4.06546 79.9767H22.4414C23.5255 79.9767 24.447 80.3578 25.2059 81.1201C26.0732 81.8824 26.5068 82.8625 26.5068 84.0604V90.1044C29.0003 86.7285 32.3069 83.9515 36.4266 81.7735C40.5462 79.4866 45.6416 78.3432 51.7127 78.3432C57.1333 78.3432 61.9035 79.2144 66.0231 80.9568C70.1428 82.5903 73.6662 85.0405 76.5933 88.3075C79.5205 91.5745 81.7971 95.5494 83.4233 100.232C85.1579 104.915 86.1336 110.305 86.3505 116.404C86.4589 118.582 86.5131 120.596 86.5131 122.448C86.5131 124.299 86.4589 126.314 86.3505 128.492C86.1336 134.372 85.2121 139.654 83.5859 144.337C81.9597 149.019 79.6831 152.994 76.756 156.261C73.8288 159.528 70.2512 162.087 66.0231 163.939C61.9035 165.681 57.1333 166.552 51.7127 166.552C46.4005 166.552 41.7388 165.627 37.7275 163.775C33.8247 161.815 30.5723 159.093 27.9704 155.608V191.871C27.9704 193.069 27.5909 194.049 26.8321 194.812C26.0732 195.574 25.0975 195.955 23.9049 195.955H4.06546ZM42.9313 144.663C46.6173 144.663 49.4902 143.901 51.5501 142.376C53.6099 140.852 55.0735 138.783 55.9408 136.169C56.9165 133.555 57.5128 130.67 57.7296 127.512C57.9464 124.136 57.9464 120.76 57.7296 117.384C57.5128 114.226 56.9165 111.34 55.9408 108.726C55.0735 106.113 53.6099 104.044 51.5501 102.519C49.4902 100.994 46.6173 100.232 42.9313 100.232C39.3537 100.232 36.4808 101.049 34.3125 102.682C32.1443 104.207 30.5723 106.222 29.5966 108.726C28.6209 111.231 28.0788 113.953 27.9704 116.894C27.862 118.963 27.8078 120.978 27.8078 122.938C27.8078 124.898 27.862 126.967 27.9704 129.145C28.0788 131.868 28.6751 134.427 29.7592 136.822C30.8433 139.109 32.4695 141.015 34.6378 142.54C36.806 143.955 39.5705 144.663 42.9313 144.663ZM101.776 164.919C100.584 164.919 99.608 164.538 98.8492 163.775C98.0903 163.013 97.7108 162.033 97.7108 160.835V84.0604C97.7108 82.9714 98.0903 82.0458 98.8492 81.2835C99.608 80.4123 100.584 79.9767 101.776 79.9767H120.477C121.67 79.9767 122.646 80.4123 123.405 81.2835C124.163 82.0458 124.543 82.9714 124.543 84.0604V90.5944C127.47 87.2185 130.939 84.6049 134.95 82.7536C139.07 80.9023 143.678 79.9767 148.773 79.9767H155.928C157.012 79.9767 157.934 80.3578 158.693 81.1201C159.56 81.8824 159.994 82.8625 159.994 84.0604V100.885C159.994 101.974 159.56 102.955 158.693 103.826C157.934 104.588 157.012 104.969 155.928 104.969H140.154C135.709 104.969 132.24 106.222 129.747 108.726C127.362 111.122 126.169 114.552 126.169 119.017V160.835C126.169 162.033 125.735 163.013 124.868 163.775C124.109 164.538 123.134 164.919 121.941 164.919H101.776ZM206.047 166.552C196.94 166.552 189.243 165.082 182.955 162.142C176.775 159.201 172.005 155.009 168.644 149.564C165.392 144.01 163.549 137.421 163.115 129.798C163.007 127.62 162.953 125.17 162.953 122.448C162.953 119.616 163.007 117.166 163.115 115.097C163.549 107.365 165.5 100.777 168.97 95.3316C172.439 89.8866 177.263 85.6939 183.443 82.7536C189.731 79.8133 197.265 78.3432 206.047 78.3432C214.936 78.3432 222.471 79.8133 228.651 82.7536C234.938 85.6939 239.817 89.8866 243.286 95.3316C246.756 100.777 248.708 107.365 249.141 115.097C249.25 117.166 249.304 119.616 249.304 122.448C249.304 125.17 249.25 127.62 249.141 129.798C248.708 137.421 246.811 144.01 243.449 149.564C240.196 155.009 235.426 159.201 229.138 162.142C222.959 165.082 215.262 166.552 206.047 166.552ZM206.047 146.623C210.925 146.623 214.449 145.153 216.617 142.213C218.893 139.273 220.194 134.862 220.52 128.982C220.628 127.348 220.682 125.17 220.682 122.448C220.682 119.725 220.628 117.547 220.52 115.914C220.194 110.142 218.893 105.786 216.617 102.846C214.449 99.7965 210.925 98.2719 206.047 98.2719C201.276 98.2719 197.753 99.7965 195.476 102.846C193.2 105.786 191.953 110.142 191.736 115.914C191.628 117.547 191.574 119.725 191.574 122.448C191.574 125.17 191.628 127.348 191.736 128.982C191.953 134.862 193.2 139.273 195.476 142.213C197.753 145.153 201.276 146.623 206.047 146.623ZM291.967 166.552C286.763 166.552 282.047 165.735 277.819 164.102C273.699 162.36 270.122 159.855 267.086 156.588C264.159 153.212 261.882 149.183 260.256 144.5C258.63 139.708 257.709 134.263 257.492 128.165C257.383 125.987 257.329 124.081 257.329 122.448C257.329 120.705 257.383 118.8 257.492 116.73C257.709 110.85 258.63 105.568 260.256 100.885C261.882 96.2028 264.159 92.1735 267.086 88.7976C270.013 85.4217 273.591 82.8625 277.819 81.1201C282.047 79.2688 286.763 78.3432 291.967 78.3432C297.387 78.3432 302.049 79.2688 305.952 81.1201C309.855 82.8625 313.161 85.1494 315.872 87.9808V53.0239C315.872 51.826 316.251 50.8459 317.01 50.0836C317.769 49.3213 318.745 48.9402 319.937 48.9402H339.777C340.861 48.9402 341.782 49.3213 342.541 50.0836C343.408 50.8459 343.842 51.826 343.842 53.0239V160.835C343.842 162.033 343.408 163.013 342.541 163.775C341.782 164.538 340.861 164.919 339.777 164.919H321.401C320.208 164.919 319.233 164.538 318.474 163.775C317.715 163.013 317.335 162.033 317.335 160.835V155.608C314.733 158.766 311.373 161.379 307.253 163.449C303.133 165.518 298.038 166.552 291.967 166.552ZM300.748 144.663C304.434 144.663 307.307 143.901 309.367 142.376C311.535 140.743 313.107 138.674 314.083 136.169C315.167 133.664 315.763 130.942 315.872 128.002C315.98 125.824 316.034 123.754 316.034 121.794C316.034 119.834 315.98 117.819 315.872 115.75C315.763 113.028 315.167 110.523 314.083 108.236C312.999 105.84 311.373 103.935 309.204 102.519C307.036 100.994 304.217 100.232 300.748 100.232C297.171 100.232 294.298 100.994 292.129 102.519C290.07 104.044 288.606 106.113 287.739 108.726C286.871 111.34 286.329 114.226 286.113 117.384C285.787 120.76 285.787 124.136 286.113 127.512C286.329 130.67 286.871 133.555 287.739 136.169C288.606 138.783 290.07 140.852 292.129 142.376C294.298 143.901 297.171 144.663 300.748 144.663ZM362.196 164.919C361.003 164.919 360.028 164.538 359.269 163.775C358.51 163.013 358.13 162.033 358.13 160.835V84.0604C358.13 82.8625 358.51 81.8824 359.269 81.1201C360.028 80.3578 361.003 79.9767 362.196 79.9767H381.385C382.469 79.9767 383.391 80.3578 384.149 81.1201C385.017 81.8824 385.45 82.8625 385.45 84.0604V160.835C385.45 162.033 385.017 163.013 384.149 163.775C383.391 164.538 382.469 164.919 381.385 164.919H362.196ZM362.033 67.7254C360.841 67.7254 359.865 67.3443 359.106 66.582C358.347 65.8197 357.968 64.8396 357.968 63.6417V49.1035C357.968 47.9056 358.347 46.9255 359.106 46.1632C359.865 45.292 360.841 44.8564 362.033 44.8564H381.385C382.577 44.8564 383.553 45.292 384.312 46.1632C385.179 46.9255 385.613 47.9056 385.613 49.1035V63.6417C385.613 64.8396 385.179 65.8197 384.312 66.582C383.553 67.3443 382.577 67.7254 381.385 67.7254H362.033ZM424.991 166.552C419.137 166.552 413.879 165.463 409.217 163.285C404.664 160.998 401.032 157.949 398.322 154.138C395.612 150.326 394.256 146.025 394.256 141.233C394.256 133.501 397.4 127.403 403.688 122.938C409.976 118.364 418.324 115.26 428.731 113.627L449.059 110.523V108.236C449.059 104.316 448.246 101.321 446.62 99.252C444.993 97.1829 442.012 96.1483 437.676 96.1483C434.64 96.1483 432.147 96.7473 430.195 97.9452C428.352 99.1431 426.888 100.777 425.804 102.846C424.829 104.261 423.473 104.969 421.739 104.969H403.526C402.333 104.969 401.412 104.643 400.761 103.989C400.111 103.227 399.84 102.356 399.948 101.376C399.948 99.4153 400.653 97.1829 402.062 94.6782C403.58 92.0646 405.856 89.5054 408.892 87.0007C411.928 84.496 415.83 82.4269 420.601 80.7934C425.371 79.1599 431.117 78.3432 437.838 78.3432C444.885 78.3432 450.902 79.1599 455.889 80.7934C460.876 82.4269 464.887 84.7138 467.923 87.6541C471.067 90.5944 473.397 94.0792 474.915 98.1085C476.433 102.029 477.192 106.385 477.192 111.177V160.835C477.192 162.033 476.758 163.013 475.891 163.775C475.132 164.538 474.21 164.919 473.126 164.919H454.263C453.07 164.919 452.094 164.538 451.335 163.775C450.577 163.013 450.197 162.033 450.197 160.835V155.118C448.788 157.187 446.891 159.093 444.505 160.835C442.12 162.577 439.302 163.939 436.049 164.919C432.905 166.008 429.219 166.552 424.991 166.552ZM432.634 147.93C435.778 147.93 438.597 147.277 441.091 145.97C443.692 144.554 445.698 142.431 447.107 139.599C448.625 136.659 449.384 133.011 449.384 128.655V126.368L435.561 128.818C430.466 129.69 426.726 131.051 424.341 132.902C422.064 134.644 420.926 136.714 420.926 139.109C420.926 140.961 421.468 142.54 422.552 143.847C423.636 145.153 425.045 146.188 426.78 146.95C428.515 147.604 430.466 147.93 432.634 147.93Z" fill="white"/><path d="M427.436 22.6059C427.441 23.2087 427.259 23.7979 426.916 24.2917C426.571 24.7855 426.083 25.1595 425.517 25.3612L413.917 29.5991L409.698 41.2507C409.491 41.813 409.117 42.2981 408.627 42.6406C408.136 42.9832 407.552 43.1668 406.956 43.1668C406.357 43.1668 405.776 42.9832 405.286 42.6406C404.795 42.2981 404.421 41.813 404.214 41.2507L399.993 29.5862L388.395 25.3612C387.834 25.1525 387.351 24.7766 387.011 24.284C386.671 23.7915 386.486 23.2059 386.486 22.6059C386.486 22.0059 386.671 21.4204 387.011 20.9278C387.351 20.4352 387.834 20.0593 388.395 19.8505L400.008 15.6128L404.214 3.96123C404.421 3.39876 404.795 2.91366 405.286 2.5711C405.776 2.22854 406.357 2.04492 406.956 2.04492C407.552 2.04492 408.136 2.22854 408.627 2.5711C409.117 2.91366 409.491 3.39876 409.698 3.96123L413.917 15.6256L425.517 19.8505C426.083 20.0525 426.571 20.4263 426.916 20.9201C427.259 21.4139 427.441 22.0032 427.436 22.6059Z" fill="url(#paint0_radial_3004_18106)"/><path d="M376.067 26.626C376.07 26.8797 375.991 27.128 375.848 27.3359C375.703 27.5438 375.496 27.7012 375.259 27.7861L370.373 29.5705L368.597 34.4765C368.51 34.7133 368.353 34.9175 368.146 35.0618C367.939 35.2059 367.695 35.2833 367.443 35.2833C367.192 35.2833 366.946 35.2059 366.739 35.0618C366.532 34.9175 366.377 34.7133 366.288 34.4765L364.511 29.5651L359.628 27.7861C359.391 27.6982 359.189 27.54 359.044 27.3326C358.901 27.1252 358.825 26.8787 358.825 26.626C358.825 26.3733 358.901 26.1268 359.044 25.9194C359.189 25.712 359.391 25.5539 359.628 25.4657L364.516 23.6815L366.288 18.7756C366.377 18.5388 366.532 18.3345 366.739 18.1903C366.946 18.0461 367.192 17.9688 367.443 17.9688C367.695 17.9688 367.939 18.0461 368.146 18.1903C368.353 18.3345 368.51 18.5388 368.597 18.7756L370.373 23.6869L375.259 25.4657C375.496 25.5509 375.703 25.7083 375.848 25.9162C375.991 26.1241 376.07 26.3723 376.067 26.626Z" fill="url(#paint1_radial_3004_18106)"/><path d="M416.193 63.4435C416.196 63.8241 416.08 64.1964 415.863 64.5082C415.646 64.8201 415.338 65.0562 414.981 65.1836L407.653 67.8601L404.99 75.219C404.859 75.5742 404.623 75.8806 404.312 76.0969C404.002 76.3135 403.635 76.4293 403.258 76.4293C402.881 76.4293 402.511 76.3135 402.203 76.0969C401.893 75.8806 401.656 75.5742 401.526 75.219L398.86 67.8519L391.534 65.1836C391.18 65.0517 390.877 64.8144 390.66 64.5033C390.445 64.1922 390.33 63.8224 390.33 63.4435C390.33 63.0646 390.445 62.6948 390.66 62.3837C390.877 62.0726 391.18 61.835 391.534 61.7033L398.869 59.0268L401.526 51.6679C401.656 51.3125 401.893 51.0064 402.203 50.7898C402.511 50.5735 402.881 50.4576 403.258 50.4576C403.635 50.4576 404.002 50.5735 404.312 50.7898C404.623 51.0064 404.859 51.3125 404.99 51.6679L407.653 59.0348L414.981 61.7033C415.338 61.8308 415.646 62.0669 415.863 62.3787C416.08 62.6906 416.196 63.0628 416.193 63.4435Z" fill="url(#paint2_radial_3004_18106)"/><defs><radialGradient id="paint0_radial_3004_18106" cx="0" cy="0" r="1" gradientUnits="userSpaceOnUse" gradientTransform="translate(406.545 21.8446) rotate(90) scale(22.2749 22.1817)"><stop offset="0.572917" stop-color="#FFD500"/><stop offset="1" stop-color="#FDC500"/></radialGradient><radialGradient id="paint1_radial_3004_18106" cx="0" cy="0" r="1" gradientUnits="userSpaceOnUse" gradientTransform="translate(367.271 26.3055) rotate(90) scale(9.37894 9.3398)"><stop offset="0.572917" stop-color="#FFD500"/><stop offset="1" stop-color="#FDC500"/></radialGradient><radialGradient id="paint2_radial_3004_18106" cx="0" cy="0" r="1" gradientUnits="userSpaceOnUse" gradientTransform="translate(402.999 62.9627) rotate(90) scale(14.0683 14.0097)"><stop offset="0.572917" stop-color="#FFD500"/><stop offset="1" stop-color="#FDC500"/></radialGradient></defs></svg>